<svg viewBox="0 0 36 36" xmlns="http://www.w3.org/2000/svg"><path d="m8.114 5.564c-1.805 6.677-6.504 10.327-7.374 13.545s-.847 10.475 13.955 14.477 19.432-4.501 20.388-8.041c4.481-16.572-23.772-31.807-26.969-19.981z" fill="#efefef"/><path d="m27.13 18.17-.97.26-12.55 3.36-.97.26c-1.07.29-2.16-.35-2.45-1.41l-.26-.97c-.33-1.23.16-2.49 1.13-3.2.29-.21.62-.37.99-.47l12.56-3.37c.37-.1.74-.12 1.1-.08 1.19.13 2.25.97 2.57 2.2l.26.97c.29 1.06-.34 2.16-1.41 2.45z" fill="#f3f3f1"/><g fill="#2fdf84"><path d="m12.93 25.08c-.13.03-.26.05-.39.05-.66 0-1.26-.44-1.44-1.11l-.91-3.38c.29 1.06 1.38 1.7 2.45 1.41l.97-.26.38 1.45c.22.8-.26 1.62-1.06 1.84z"/><path d="m28.39 20.94c-.13.03-.26.05-.39.05-.66 0-1.27-.44-1.45-1.12l-.39-1.44.97-.26c1.07-.29 1.7-1.39 1.41-2.45l.91 3.38c.21.8-.26 1.62-1.06 1.84z"/><path d="m25.71 12.55c-.36-.04-.73-.02-1.1.08l-12.56 3.37c-.37.1-.7.26-.99.47l.71-5.34c.11-.8.69-1.45 1.47-1.66l7.08-1.9c.78-.21 1.61.07 2.1.71z"/></g><path d="m11.93 19.67.26.97c.15.56.53 1.01 1.02 1.26l-.57.15c-1.07.29-2.16-.35-2.45-1.41l-.26-.97c-.33-1.23.16-2.49 1.13-3.2.29-.21.62-.37.99-.47l12.56-3.37c.37-.1.74-.12 1.1-.08.22.02.43.07.64.15l-12.3 3.3c-.37.1-.7.26-.99.47-.97.71-1.46 1.97-1.13 3.2z" fill="#d5dbe1"/><g fill="#00b871"><path d="m13.55 24.75c-.17.15-.38.27-.62.33-.13.03-.26.05-.39.05-.66 0-1.26-.44-1.44-1.11l-.91-3.38c.28 1.04 1.33 1.67 2.38 1.42l.53 1.96c.08.29.24.54.45.73z"/><path d="m27.962 17.7c-.23.213-.508.382-.832.47l-.97.26.39 1.44c.18.68.79 1.12 1.45 1.12.13 0 .26-.02.39-.05.24-.06.45-.18.62-.34-.22-.18-.38-.43-.46-.73z"/><path d="m21.76 7.72-6.52 1.75c-.78.21-1.36.86-1.47 1.66l-.61 4.57-1.11.3c-.37.1-.7.26-.99.47l.71-5.34c.11-.8.69-1.45 1.47-1.66l7.08-1.9c.49-.13 1-.07 1.44.15z"/></g><path d="m12.124 22.868c-1.214 0-2.329-.812-2.658-2.038l-.259-.967c-.259-.968-.126-1.978.375-2.846.501-.867 1.31-1.487 2.277-1.747l12.556-3.364c.967-.26 1.978-.127 2.846.374.867.501 1.488 1.31 1.747 2.277l.259.966c.19.709.093 1.45-.275 2.087-.367.636-.96 1.091-1.669 1.281l-14.489 3.883c-.237.064-.476.094-.71.094zm13.267-9.591c-.196 0-.393.025-.587.078l-12.557 3.365c-.581.155-1.066.527-1.367 1.048-.3.521-.38 1.127-.225 1.707l.259.967c.178.665.868 1.063 1.531.884l14.488-3.883c.323-.086.592-.293.759-.582s.211-.626.125-.948l-.259-.966c-.155-.581-.528-1.066-1.048-1.367-.345-.2-.73-.303-1.119-.303z"/><path d="m12.547 25.878c-.994 0-1.906-.664-2.176-1.668l-.906-3.38 1.449-.389.906 3.38c.107.399.521.641.919.531.399-.107.637-.52.53-.919l-.388-1.448 1.449-.389.388 1.448c.321 1.198-.393 2.435-1.591 2.757-.193.053-.388.077-.58.077z"/><path d="m27.996 21.737c-.39 0-.774-.102-1.121-.302-.521-.301-.893-.786-1.048-1.366l-.388-1.449 1.449-.389.388 1.449c.052.193.176.355.35.456.174.1.375.128.568.074.4-.107.638-.52.531-.918l-.906-3.381 1.449-.389.906 3.381c.321 1.198-.393 2.434-1.591 2.756-.195.053-.392.078-.587.078z"/><path d="m11.83 16.354-1.486-.199.686-5.121c.147-1.104.938-2.004 2.013-2.292l7.084-1.897c1.074-.288 2.209.096 2.89.978l3.154 4.093-1.188.916-3.154-4.093c-.309-.401-.825-.576-1.313-.444l-7.086 1.895c-.488.131-.848.54-.915 1.042z"/><path d="m12.778 17.754h3v1.5h-3z" transform="matrix(.966 -.259 .259 .966 -4.306 4.33)"/><path d="m22.437 15.166h3v1.5h-3z" transform="matrix(.966 -.258 .258 .966 -3.3 6.727)"/><path d="m14.059 29.25h-2.489c-.921 0-1.777-.458-2.288-1.225l-.812-1.218c-.232-.349-.621-.557-1.04-.557h-1.68v-1.5h1.68c.921 0 1.777.458 2.288 1.225l.813 1.219c.232.349.621.557 1.04.557h2.488c.539 0 1.016-.344 1.186-.854l.087-.264c.375-1.126 1.424-1.882 2.609-1.882h12.309v1.5h-12.309c-.539 0-1.016.344-1.186.854l-.087.264c-.376 1.125-1.424 1.881-2.609 1.881z"/><path d="m4.727 8.033h2v1h-2z" fill="#a4afc1" transform="matrix(.707 -.707 .707 .707 -4.357 6.549)"/><path d="m8.793 3.967h2v1h-2z" fill="#a4afc1" transform="matrix(.707 -.707 .707 .707 -.29 8.233)"/><path d="m5.05 3.467h1v2h-1z" fill="#a4afc1" transform="matrix(.707 -.707 .707 .707 -1.533 5.233)"/></svg>