<svg enable-background="new 0 0 473.681 473.681" viewBox="0 0 473.681 473.681" xmlns="http://www.w3.org/2000/svg"><path d="m305.456 226.706h167.967c-5.318-126.102-109.185-226.704-236.588-226.704 63.535 0 66.807 111.757 68.621 226.704z" fill="#fbd015"/><path d="m305.456 351.039h138.888c18.679-33.869 29.337-72.783 29.337-114.195 0-3.396-.112-6.772-.254-10.138h-157.1c.677 42.889-2.958 86.193-10.871 124.333z" fill="#21428c"/><path d="m229.258 473.548c-.606-.015-1.215-.045-1.821-.067.602.022 1.212.052 1.821.067z" fill="#cd202a"/><path d="m236.835 473.679c89.387 0 167.185-49.534 207.505-122.639h-143.873c-14.547 70.079-20.07 122.639-63.632 122.639z" fill="#cd202a"/><path d="m236.835 473.679c-2.539 0-5.063-.052-7.576-.131 2.527.078 5.055.131 7.576.131z" fill="#fff"/><path d="m.254 226.706h334.595c-1.81-114.947-34.479-226.704-98.014-226.704-127.396 0-231.263 100.602-236.581 226.704z" fill="#fcd73e"/><path d="m334.849 226.706h-334.595c-.142 3.366-.254 6.743-.254 10.138 0 41.412 10.658 80.326 29.337 114.195h294.645c7.913-38.14 11.548-81.444 10.867-124.333z" fill="#1d4f95"/><path d="m227.433 473.48c.606.022 1.215.052 1.821.067 2.517.079 5.041.131 7.576.131 43.562 0 72.596-52.56 87.143-122.639h-294.64c38.903 70.525 112.689 119.106 198.1 122.441z" fill="#d11f3e"/></svg>