<svg viewBox="0 0 512 512" xmlns="http://www.w3.org/2000/svg"><circle cx="256" cy="256" fill="#934cf5" r="256"/><circle cx="255.93" cy="255.98" fill="#fff" r="256"/><path d="m269.59 505.07c7.55 1.79 15.2 3.26 23 4.36a258.64 258.64 0 0 1 -71.15.26q-11.94-1.6-23.5-4.31l-1.34-.31a254.67 254.67 0 0 1 -78.16-33.16 256.26 256.26 0 0 1 -112.23-159.91q-2.59-11.57-4.11-23.5a259.41 259.41 0 0 1 -2.03-32.5q0-11.91 1.07-23.54c.71-7.93 1.86-15.76 3.24-23.46a256.31 256.31 0 0 1 162.8-193.1 253 253 0 0 1 29.41-8.9l1.34-.31q11.56-2.69 23.5-4.34a258.64 258.64 0 0 1 71.15.26c-7.79 1.1-15.44 2.57-23 4.36a253 253 0 0 0 -29.41 8.91c-6.36 2.36-12.63 5-18.75 7.81a256.22 256.22 0 0 0 -144.04 185.31c-1.43 7.72-2.53 15.55-3.24 23.5q-1.08 11.61-1.07 23.5a259.41 259.41 0 0 0 2 32.46q1.52 11.94 4.11 23.5a255.38 255.38 0 0 0 62.72 118.73 256.3 256.3 0 0 0 79.5 57.65c6.12 2.84 12.39 5.45 18.75 7.81a252.91 252.91 0 0 0 29.44 8.92z" fill="#dddbdb"/><path d="m511 232.48c-.71-7.95-1.81-15.79-3.23-23.5h-286.34v-206.63q-11.94 1.65-23.5 4.31l-1.34.34a254.93 254.93 0 0 0 -78.16 33.17v168.83h-114.05c-1.38 7.7-2.53 15.53-3.24 23.48q-1.08 11.63-1.07 23.52a259.41 259.41 0 0 0 2 32.46q1.55 11.96 4.14 23.54h112.22v159.91a254 254 0 0 0 78.16 33.16l1.34.31q11.56 2.69 23.5 4.31v-197.69h284.5q2.58-11.57 4.1-23.5a257.64 257.64 0 0 0 2-32.46q.04-11.93-1.03-23.56z" fill="#3e436d"/><circle cx="471.88" cy="261.5" fill="#4f4f74" r="16.28"/><circle cx="437.97" cy="261.5" fill="#4f4f74" r="11.53"/><g fill="#32314b"><path d="m141.93 430.71a256.41 256.41 0 0 1 -23.5-29.14v70.34a254 254 0 0 0 78.16 33.16l1.34.31q11.56 2.69 23.5 4.31v-21.33a256.3 256.3 0 0 1 -79.5-57.65z"/><path d="m73.07 256q0-11.91 1.07-23.54c.71-7.95 1.81-15.78 3.24-23.5h-73c-1.38 7.74-2.53 15.57-3.24 23.52q-1.08 11.63-1.07 23.52a259.41 259.41 0 0 0 2 32.46q1.55 11.96 4.14 23.54h73q-2.59-11.57-4.11-23.5a259.41 259.41 0 0 1 -2.03-32.5z"/><path d="m197.93 6.66-1.34.34a254.93 254.93 0 0 0 -78.16 33.17v70.34a256.68 256.68 0 0 1 103-86.79v-21.37q-11.94 1.65-23.5 4.31z"/></g></svg>