<svg viewBox="0 0 512 512" xmlns="http://www.w3.org/2000/svg"><circle cx="256" cy="256" fill="#00b564" r="256"/><path d="m496.14 167.11h-480.29c36.15-97.58 130.01-167.11 240.15-167.11s204 69.53 240.14 167.11z" fill="#1c1c2b"/><path d="m496.14 344.86h-480.29a256.53 256.53 0 0 1 0-177.75h480.29a253 253 0 0 1 8.91 29.41 257.31 257.31 0 0 1 -8.91 148.34z" fill="#db1b1b"/><path d="m256 512a256.09 256.09 0 0 1 -240.15-167.14h480.29a252.21 252.21 0 0 1 -13.05 29.41 256 256 0 0 1 -227.09 137.73z" fill="#f7bb38"/><path d="m289.5 2.16c-95.38 12.48-174.24 77.43-206.65 165h-67c36.15-97.63 130.01-167.16 240.15-167.16a259.05 259.05 0 0 1 33.5 2.16z" fill="#14141e"/><path d="m67 256a255.41 255.41 0 0 0 15.85 88.87h-67a256.53 256.53 0 0 1 0-177.75h67a252.91 252.91 0 0 0 -8.85 29.4 256.16 256.16 0 0 0 -7 59.48z" fill="#c61a1a"/><path d="m289.5 509.82a256.45 256.45 0 0 1 -260.6-135.55 253.9 253.9 0 0 1 -13-29.41h67a256.15 256.15 0 0 0 206.65 165z" fill="#dda431"/><g fill="#32314b"><circle cx="426.68" cy="117.5" r="18.07"/><circle cx="403.58" cy="87.78" r="12.8"/></g></svg>