<svg enable-background="new 0 0 473.68 473.68" viewBox="0 0 473.68 473.68" xmlns="http://www.w3.org/2000/svg"><circle cx="236.85" cy="236.85" fill="#fff" r="236.83"/><path d="m460.14 157.877h-145.921c6.335 50.593 6.376 106.339.12 156.995h146.116c8.526-24.442 13.219-50.682 13.219-78.03.004-27.699-4.798-54.265-13.534-78.965z" fill="#efecec"/><path d="m314.219 157.877h145.922c-.026-.075-.049-.138-.075-.206-30.313-85.467-108.28-148.348-201.961-156.695 36.253 19.872 46.839 82.832 56.114 156.901z" fill="#e63026"/><path d="m258.109 472.701c93.848-8.362 171.927-71.46 202.12-157.156.079-.228.146-.452.228-.673h-146.12c-9.194 74.47-19.827 137.874-56.228 157.829z" fill="#2b479d"/><path d="m.001 236.842c0 27.348 4.693 53.588 13.219 78.03h313.313c6.256-50.66 6.215-106.402-.12-156.995h-312.879c-8.736 24.7-13.533 51.266-13.533 78.965z" fill="#efefef"/><path d="m13.604 157.672c-.026.067-.049.131-.075.206h312.883c-9.274-74.07-32.056-137.029-68.303-156.901-7.011-.622-14.102-.977-21.274-.977-103.028 0-190.65 65.805-223.231 157.672z" fill="#e73b36"/><path d="m326.533 314.872h-313.313c.079.221.15.445.228.673 32.452 92.102 120.189 158.135 223.387 158.135 7.173 0 14.263-.352 21.274-.98 36.401-19.954 59.228-83.358 68.424-157.828z" fill="#3757a6"/></svg>