<svg viewBox="0 0 512 512" xmlns="http://www.w3.org/2000/svg"><circle cx="256" cy="256" fill="#27273d" r="256"/><path d="m512 256v.09h-512v-.09c0-141.38 114.62-256 256-256s256 114.62 256 256z" fill="#fff"/><path d="m512 256v.09c0 141.34-114.65 255.91-256 255.91s-255.95-114.57-256-255.91v-.09z" fill="#db1b1b"/><path d="m293.5 2.73c-123.6 18.14-218.5 124.63-218.5 253.27v.09h-75v-.09c0-141.38 114.62-256 256-256a257.62 257.62 0 0 1 37.5 2.73z" fill="#ddd"/><path d="m293.5 509.27a257.62 257.62 0 0 1 -37.5 2.73c-141.35 0-255.95-114.57-256-255.91v-.09h75v.09c.05 128.6 94.93 235.04 218.5 253.18z" fill="#aa1818"/><g fill="#e83434"><circle cx="461.19" cy="322.97" r="16.28"/><circle cx="478.76" cy="293.97" r="11.53"/></g></svg>