<svg viewBox="0 0 58 36" width="512" xmlns="http://www.w3.org/2000/svg"><g fill="none"><path d="m42 15.826v-10.826h4v12z" fill="#7f8c8d"/><path d="m46 18v13h-4v-11.729z" fill="#7f8c8d"/><path d="m27.21 30h-11.48c-.35-.6-1.99 3-2.73 3l-1 1-2-13 16.06 8.77c.3640771.1528591.7551369.2310711 1.15.23z" fill="#802f34"/><path d="m12 24.32v4.68l-6 2-1-11z" fill="#7f8c8d"/><path d="m27.21 6c-.3948631-.00107111-.7859229.07714085-1.15.23l-15.06 9.77-2-12 2-2c.74 0 4.38 4.6 4.73 4z" fill="#802f34"/><path d="m12 7v4.68l-6 3.32-1-12z" fill="#7f8c8d"/><path d="m57 5v14c-.0865493-.035047-.1773248-.0585814-.27-.07l-3.73-.58v-13.35c0-.55228475.4477153-1 1-1h2c.5522847 0 1 .44771525 1 1z" fill="#802f34"/><path d="m57 17v14c0 .5522847-.4477153 1-1 1h-2c-.5522847 0-1-.4477153-1-1v-13.35l3.73-.58c.0926752-.0114186.1834507-.034953.27-.07z" fill="#802f34"/><g fill="#2c2f38"><rect height="7" rx="2" width="12" x="38" y="1"/><rect height="7" rx="2" width="12" x="38" y="28"/><path d="m16 2v3c0 1.1045695-.8954305 2-2 2h-6v-1c0-.55228475-.44771525-1-1-1h-3v-3c.0032948-1.10320187.89679813-1.9967052 2-2h8c1.1032019.0032948 1.9967052.89679813 2 2z"/><path d="m16 31v3c-.0032948 1.1032019-.8967981 1.9967052-2 2h-8c-1.10320187-.0032948-1.9967052-.8967981-2-2v-3h3c.55228475 0 1-.4477153 1-1v-1h6c1.1045695 0 2 .8954305 2 2z"/></g><path d="m57 16.09c-.0865493-.035047-.1773248-.0585814-.27-.07l-3.73-.58-7-1.1-4-.62-11-1.72c-.4756963-1.0315111-.7473536-2.14530604-.8-3.28-.1486695-1.54077882-1.4420675-2.71738167-2.99-2.72-.3948631-.00107111-.7859229.07714085-1.15.23l-14.06 5.45-4 1.55-3 4.77 3 4.77 4 1.55 14.06 5.45c.3640771.1528591.7551369.2310711 1.15.23 1.5479325-.0026183 2.8413305-1.1792212 2.99-2.72.0526464-1.134694.3243037-2.2484889.8-3.28l11-1.72 4-.62 7-1.1 3.73-.58c.0926752-.0114186.1834507-.034953.27-.07 1.33-.53 1.33-3.29 0-3.82z" fill="#e64c3c"/><path d="m21 15v6l-8.64-2.52c-.2133333-.0622222-.36-.2577778-.36-.48s.1466667-.4177778.36-.48z" fill="#802f34"/><path d="m29 18c0 1.6568542-1.3431458 3-3 3h-5v-6h5c1.6568542 0 3 1.3431458 3 3z" fill="#2c2f38"/><rect fill="#fb7b76" height="26" rx="1" width="8" y="5"/><g fill="#e6e7e8"><path d="m4 11c-.55228475 0-1-.4477153-1-1v-1c0-.55228475.44771525-1 1-1s1 .44771525 1 1v1c0 .5522847-.44771525 1-1 1z"/><path d="m4 20c-.55228475 0-1-.4477153-1-1v-5c0-.5522847.44771525-1 1-1s1 .4477153 1 1v5c0 .5522847-.44771525 1-1 1z"/></g></g></svg>